<?xml version="1.0" standalone="no"?><!DOCTYPE svg PUBLIC "-//W3C//DTD SVG 1.1//EN" "http://www.w3.org/Graphics/SVG/1.1/DTD/svg11.dtd"><svg t="1553866291453" class="icon" style="" viewBox="0 0 1031 1024" version="1.1" xmlns="http://www.w3.org/2000/svg" p-id="30533" xmlns:xlink="http://www.w3.org/1999/xlink" width="201.3671875" height="200"><defs><style type="text/css"></style></defs><path d="M451.062 62.017c-117.677-1.494-220.64 98.92-222.673 223.188-1.017 69.994 29.932 133.898 83.678 179.058l15.731 9.629-16.221 6.077c-147.093 55.367-247.532 194.287-249.578 353.044v2.511c0 59.077 47.89 106.967 106.967 106.967 0 0 0 0 0 0h0.088l289.603 3.553c9.629 0 25.361-3.453 25.876-22.661 0.515-22.323-15.731-25.109-24.846-25.109l-289.628-3.604c-27.897 0-59.661-31.763-59.661-59.661v-1.532c2.021-168.386 138.668-313.684 300.287-320.539l44.431 0.515c38.029-2.511 92.316-11.677 121.23-36.522l12.667-9.629c54.765-43.628 87.256-107.031 88.249-177.024 1.544-123.201-98.894-226.716-226.202-228.26zM452.457 465.467c-97.175-1.079-176.71-82.762-175.103-179.911 1.079-97.162 82.762-176.169 179.911-175.103s176.71 82.762 175.103 179.911-82.736 176.747-179.911 175.103z" p-id="30534"></path><path d="M959.158 693.602c-2.95-15.87-15.468-28.713-28.147-28.877h-3.164c-27.641-0.006-50.048-22.414-50.048-50.056 0-0.45 0.007-0.899 0.018-1.346 0.086-6.211 3.364-15.728 3.413-18.905 6.541-15.743 0.452-34.84-12.102-44.519l-56.597-32.417-15.844-0.202c-9.503-0.126-22.222 2.888-28.675 12.304-6.415 6.277-25.625 21.871-38.292 21.695s-31.488-16.259-40.903-22.724c-6.278-6.403-15.682-12.869-28.349-13.031-6.278-0.088-9.503-0.126-12.718 3.013l-60.59 30.91c-12.793 9.328-19.372 28.248-13.245 44.181 1.844 5.893 2.914 12.669 2.931 19.694-0.005-0.655-0.005-0.65-0.005-0.644 0 27.638-22.405 50.044-50.044 50.044-0.455 0-0.907-0.007-1.359-0.019l-3.098 0.002c-12.668-0.163-25.511 12.341-28.877 28.135 0 3.176-6.654 25.273-6.942 47.445-0.251 19.008 2.587 44.394 5.713 47.595 2.962 15.882 15.492 28.701 28.16 28.877h3.151c0.006 0 0.011 0 0.017 0 27.638 0 50.044 22.405 50.044 50.044 0 0.458-0.007 0.917-0.019 1.373-0.086 6.21-3.364 15.728-3.413 18.904-6.541 15.757-0.44 34.84 12.102 44.507l56.622 32.417c6.365-3.088 9.529-3.038 15.87-2.963 9.503 0.113 22.21-2.887 28.675-12.316 6.415-6.278 25.662-25.010 41.506-24.808 12.668 0.163 34.639 16.321 40.853 25.876 6.278 6.428 15.682 12.881 28.361 13.044 6.278 0.088 9.491 0.126 15.869-2.963l57.439-30.948c12.793-9.328 19.372-28.261 13.245-44.181-1.844-5.891-2.914-12.667-2.931-19.689 0.005 0.647 0.005 0.637 0.005 0.626 0-27.631 22.4-50.031 50.031-50.031 0.458 0 0.917 0.007 1.373 0.019l3.097-0.002c12.668 0.163 25.511-12.341 28.877-28.147 0 0 6.654-25.261 6.942-47.432-6.139-15.92-8.99-41.318-8.951-44.483zM913.785 772.233c-47.595 5.725-82.937 43.289-83.59 93.973-0.126 9.503 2.875 22.222 5.951 28.587l-41.431 21.645-15.644-16.045c-18.833-12.919-34.601-19.46-53.609-19.711-15.844-0.202-34.927 5.888-54.099 18.317-6.415 6.278-12.793 9.341-16.045 15.644l-37.665-22.674c3.239-6.278 6.566-18.933 6.692-28.424 0.603-47.52-33.71-89.139-81.129-96.096 0.088-6.278-2.925-19.058-2.763-31.726 0.126-9.503 3.452-22.134 3.578-31.626 47.595-5.725 82.925-43.289 83.59-93.973 0.113-9.503-2.875-22.223-5.963-28.599l41.431-21.645c3.127 3.214 9.379 9.629 15.668 12.881 18.832 12.919 34.601 19.447 50.446 19.661s31.751-5.926 50.923-18.343c6.415-6.277 12.793-9.328 15.996-12.48l40.867 22.7c-3.239 6.278-6.578 18.921-6.704 28.424-0.615 47.52 33.71 89.139 81.142 96.108-0.076 6.278 2.913 19.034 2.75 31.714 3.063 9.555-0.263 22.184-0.389 31.688z" p-id="30535"></path><path d="M812.983 726.583c-5.838-38.078-33.986-66.955-68.751-73.773-60.038-13.447-114.563 39.711-102.724 103.239 5.888 34.928 34.037 63.804 68.801 70.597 60.038 13.447 114.563-39.711 102.674-100.062zM726.755 779.314c-22.172-0.276-40.928-19.536-40.653-41.72s19.536-40.928 41.707-40.64 40.942 19.548 40.653 41.77-19.523 40.891-41.707 40.603z" p-id="30536"></path></svg>