<?xml version="1.0" standalone="no"?><!DOCTYPE svg PUBLIC "-//W3C//DTD SVG 1.1//EN" "http://www.w3.org/Graphics/SVG/1.1/DTD/svg11.dtd"><svg t="1553865911951" class="icon" style="" viewBox="0 0 1025 1024" version="1.1" xmlns="http://www.w3.org/2000/svg" p-id="23810" xmlns:xlink="http://www.w3.org/1999/xlink" width="200.1953125" height="200"><defs><style type="text/css"></style></defs><path d="M915.792027 271.981235l-20.942093 11.276118c-0.731418 0.393841-73.777094 38.683335-132.454235-19.995852-57.686913-57.686913-23.194657-130.060503-21.06178-134.367176l10.896599-20.474599L644.398995 0.588204 1.659246 643.328976l91.098921 91.099945 15.689179 16.12803 20.32627-9.712008c1.395321-0.614801 22.156349-9.573908 49.233149-11.118582 34.350065-1.954882 63.399137 8.672678 86.324755 31.598296 22.822298 22.823321 33.241173 51.520494 30.966104 85.296677-1.793254 26.635903-10.968206 47.011275-11.616764 48.423986l-10.088459 20.218858L382.3272 1024l642.740773-642.740773-109.275946-109.277992zM349.644564 900.89769c3.776778-12.059707 7.704955-28.345274 9.235308-47.166765 4.342477-53.40786-12.718495-100.995063-49.338515-137.61406-36.523861-36.523861-84.223589-53.829321-137.950614-50.044359-19.178505 1.351334-35.760731 5.15164-47.965699 8.806686l-31.549193-31.549193L644.398995 91.006855l31.051011 31.049987c-3.925108 11.990146-7.961719 28.097717-9.527875 46.786223-4.472393 53.33523 13.254528 101.618047 51.264753 139.628273 33.828354 33.829377 75.577508 51.403876 121.619015 51.401831 5.82475 0 11.727245-0.281315 17.68191-0.848036 18.336607-1.741083 34.149564-5.899426 45.989335-9.942175l32.173201 32.1732L382.3272 933.580326l-32.682636-32.682636z" p-id="23811"></path><path d="M681.527427 377.920277l-31.3446-31.344601-17.239991 17.239991c-24.955175-25.196595-64.934604-27.154545-87.40398-22.302633-21.218293 4.580827-40.971703 19.165206-52.804313 33.273908-12.538454 14.949577-22.882653 32.102616-24.241147 50.38296-2.411123 32.429964 11.385575 65.310032 20.530861 103.996435 3.158909 13.365008 4.193124 18.739654-3.160954 26.093733l-30.017818 30.017818c-4.580827 4.580827-15.672812 6.028319-20.976874 0.723235-5.304062-5.304062-4.942956-16.033918 0.362129-21.339002l36.648662-36.648663-66.185687-66.185687c-30.554873 30.262306-36.166847 40.024439-42.074457 61.603837-5.90761 21.579398-9.232239 59.243863 20.132929 89.573685l-21.458689 21.458689 31.344601 31.3446 21.820818-21.820818c32.239693 30.551804 65.429718 28.870054 92.439003 18.72431 27.566799-10.355452 39.602979-30.144665 49.025488-47.245533 11.776347-21.374806 13.178829-45.65278 11.332381-74.986236-2.528764-40.176861-11.570731-56.253743-13.565509-74.783689-1.384069-12.86171 4.412038-17.673727 9.05322-22.315932l28.089533-28.089533c5.424771-5.424771 13.381375-5.425794 18.083935-0.723235 4.701537 4.701537 6.872264 11.934906-0.362129 19.168276l-30.621366 30.621365s55.817961 55.336145 64.980638 64.498823c25.317304-19.048589 36.717201-38.270058 40.145149-58.952319 3.736883-22.544052-0.996366-58.863321-18.324331-76.192309 7.354079-7.352033 15.792498-15.791475 15.792498-15.791475z" p-id="23812"></path></svg>