<?xml version="1.0" standalone="no"?><!DOCTYPE svg PUBLIC "-//W3C//DTD SVG 1.1//EN" "http://www.w3.org/Graphics/SVG/1.1/DTD/svg11.dtd"><svg t="1554025039572" class="icon" style="" viewBox="0 0 1152 1024" version="1.1" xmlns="http://www.w3.org/2000/svg" p-id="4479" xmlns:xlink="http://www.w3.org/1999/xlink" width="225" height="200"><defs><style type="text/css"></style></defs><path d="M988.651427 819.413072C963.675462 778.707853 917.214726 751.21743 864.002 751.21743 810.789274 751.21743 764.214938 778.709366 739.352573 819.413072L720.002198 819.413072 720.002198 273.847936 864.002 273.847936 864.002 614.826147 1080.001699 614.826147 1080.001699 819.413072 988.651427 819.413072ZM864.0036 955.804358C824.290054 955.804358 792.003699 925.2224 792.003699 887.608717 792.003699 849.99503 824.288454 819.413072 864.0036 819.413072 903.717146 819.413072 936.003501 849.99503 936.003501 887.608717 936.003501 925.2224 903.717146 955.804358 864.0036 955.804358L864.0036 955.804358ZM648.002301 819.413072 412.652227 819.413072C387.679462 778.707853 341.215526 751.21743 288.0028 751.21743 234.790074 751.21743 188.215739 778.709366 163.353373 819.413072L72.0031 819.413072 72.0031 119.8743C72.0031 91.424593 96.529466 68.195642 126.566224 68.195642L593.440774 68.195642C623.479133 68.195642 648.003901 91.426109 648.003901 119.8743L648.003901 819.413072 648.002301 819.413072ZM288.0012 955.804358C248.287655 955.804358 216.0013 925.2224 216.0013 887.608717 216.0013 849.99503 248.287655 819.413072 288.0012 819.413072 327.716346 819.413072 360.001101 849.99503 360.001101 887.608717 360.001101 925.2224 327.716346 955.804358 288.0012 955.804358L288.0012 955.804358ZM1041.638554 358.239286C1066.051318 379.231421 1080.001699 409.066256 1080.001699 440.286221L1080.001699 546.628989 936.001901 546.628989 936.001901 279.7067C950.965078 284.501611 964.913859 292.281976 976.952243 302.615889L1041.640154 358.23777 1041.638554 358.239286ZM1090.014486 307.730562 1025.326576 252.110196C990.449824 222.167763 945.339488 205.652294 898.313952 205.652294L720.000598 205.652294 720.000598 119.8743C720.000598 53.810908 663.187878 0 593.439174 0L126.563024 0C56.812721 0 0 53.810908 0 119.8743L0 887.608717 143.9998 887.608717C143.9998 962.837603 208.57571 1024 287.9996 1024 367.423491 1024 431.999402 962.836086 431.999402 887.608717L720.000598 887.608717C720.000598 962.837603 784.576509 1024 864.0004 1024 943.424291 1024 1008.000198 962.836086 1008.000198 887.608717L1152 887.608717 1152 440.287734C1152 389.886611 1129.387232 341.617734 1090.012886 307.730562L1090.014486 307.730562Z" p-id="4480"></path></svg>