<?xml version="1.0" standalone="no"?><!DOCTYPE svg PUBLIC "-//W3C//DTD SVG 1.1//EN" "http://www.w3.org/Graphics/SVG/1.1/DTD/svg11.dtd"><svg t="1554025159476" class="icon" style="" viewBox="0 0 1024 1024" version="1.1" xmlns="http://www.w3.org/2000/svg" p-id="4606" xmlns:xlink="http://www.w3.org/1999/xlink" width="200" height="200"><defs><style type="text/css"></style></defs><path d="M373.911704 476.539259H34.133333a29.013333 29.013333 0 0 0-29.733926 29.733926c0 16.990815 12.743111 29.733926 29.733926 29.733926H373.94963a29.013333 29.013333 0 0 0 29.733926-29.733926c0-12.743111-12.743111-29.733926-29.733926-29.733926z m-148.66963 135.926519H34.133333a29.013333 29.013333 0 0 0-29.733926 29.733926c0 16.990815 12.743111 29.733926 29.733926 29.733926h191.146667a29.013333 29.013333 0 0 0 29.696-29.733926c4.247704-12.743111-12.743111-29.733926-29.733926-29.733926z m586.107259 33.981629v-25.486222l-114.688-114.688a33.336889 33.336889 0 0 0-46.72474 0 33.336889 33.336889 0 0 0 0 46.724741l55.220148 55.220148h-186.861037a29.013333 29.013333 0 0 0-29.733926 29.733926c0 16.990815 12.743111 29.733926 29.733926 29.733926h182.613333l-55.220148 55.182222a33.336889 33.336889 0 0 0 0 46.724741 33.336889 33.336889 0 0 0 46.724741 0l114.688-114.650074v-16.990815c4.247704 12.743111 4.247704 8.495407 4.247703 8.495407z m-683.804444 101.906963H34.133333a29.013333 29.013333 0 0 0-29.733926 29.733926c0 16.990815 12.743111 29.733926 29.733926 29.733926h93.449482a29.013333 29.013333 0 0 0 29.733926-29.733926c4.247704-12.743111-12.743111-29.733926-29.733926-29.733926z" p-id="4607"></path><path d="M989.714963 242.991407l-89.201778-169.908148C879.274667 30.606222 824.13037 0.910222 777.367704 0.910222H242.232889C195.508148 0.910222 140.325926 34.853926 119.087407 73.083259L34.133333 238.743704C17.142519 272.687407 0.151704 332.155259 0.151704 374.632296v25.486223c0 16.990815 12.743111 29.733926 29.733926 29.733925s33.98163-12.743111 33.981629-29.733925v-33.98163H955.733333v560.583111a29.013333 29.013333 0 0 1-29.733926 29.733926H97.848889a29.013333 29.013333 0 0 1-29.733926-29.733926v-38.191407a29.013333 29.013333 0 0 0-29.733926-29.733926 29.013333 29.013333 0 0 0-29.733926 29.733926v38.191407A94.245926 94.245926 0 0 0 102.096593 1020.207407h828.150518a94.245926 94.245926 0 0 0 93.449482-93.449481V378.88c0-42.477037-16.990815-101.944889-33.98163-135.888593zM80.858074 302.421333c4.247704-12.743111 8.495407-25.486222 12.743111-33.981629L182.802963 102.817185c12.705185-21.238519 42.477037-38.229333 63.715556-38.229333h535.096888c25.486222 0 55.220148 16.990815 63.715556 38.229333l89.163852 169.908148c4.247704 8.457481 8.495407 16.952889 12.743111 29.696H80.858074z" p-id="4608"></path></svg>