<?xml version="1.0" standalone="no"?><!DOCTYPE svg PUBLIC "-//W3C//DTD SVG 1.1//EN" "http://www.w3.org/Graphics/SVG/1.1/DTD/svg11.dtd"><svg t="1553863261967" class="icon" style="" viewBox="0 0 1024 1024" version="1.1" xmlns="http://www.w3.org/2000/svg" p-id="10143" xmlns:xlink="http://www.w3.org/1999/xlink" width="200" height="200"><defs><style type="text/css"></style></defs><path d="M715.29271 271.526983c0 10.899609-10.399627 19.699294-23.099172 19.699294H336.106307c-12.799541 0-23.199168-8.799684-23.199168-19.699294 0-10.899609 10.399627-19.79929 23.199168-19.79929h356.087231c12.799541 0.099996 23.099172 8.899681 23.099172 19.79929z m-40.198558-30.998888l-325.588325 0.899968c-15.89943 0-83.297013-77.097235-83.297013-136.195117 0-71.39744 60.897816-65.197662 107.596142-65.597647 39.998566-0.399986 81.797067-56.397978 112.09598-34.59876 42.198487 30.39891 52.098132 102.096339 62.997741 102.096339 18.699329 0-0.499982-93.496647 92.196694-93.496647 92.59668 0 129.595353 21.099243 117.39579 87.796852-12.899537 70.497472-68.397547 137.19508-83.397009 139.095012z m36.398694 85.496934H320.206878C193.311428 403.622246 85.415297 554.916821 85.415297 754.009682c0 219.592126 201.492775 269.690329 431.68452 269.690329 230.091749 0 421.584882-52.498117 421.584882-272.290236-0.099996-184.393388-93.196658-343.887668-227.191853-425.384746zM538.699043 860.705856l-8.399699 1.299953v67.49758h-47.69829v-63.797713l-9.999641-0.399985c-42.898462-1.699939-87.896848-11.199598-117.595783-24.599118l17.499372-60.597827c25.299093 11.299595 66.397619 25.299093 114.89588 25.299093h4.499839c51.398157 0 83.397009-19.599297 83.397009-51.198164 0-34.29877-35.098741-51.798143-87.596859-67.597576-90.996737-27.199025-129.695349-61.597791-129.695349-114.995877 0-56.497974 44.89839-98.096482 119.995697-111.196012l8.399699-1.499947v-62.597755H533.999211v59.097881l9.599656 0.399986c36.998673 1.499946 68.297551 7.499731 95.09659 18.299343l-15.399448 55.398014c-21.299236-7.599727-52.198128-16.499408-94.096626-16.499409H523.499588c-67.997562 0-73.297372 36.098706-73.297372 47.098312 0 28.898964 30.598903 44.598401 94.796601 66.897601 82.597038 26.799039 116.195833 60.897816 116.195833 117.795776 0 59.39787-46.898318 103.796278-122.495607 115.895844z m0 0" p-id="10144"></path></svg>