<?xml version="1.0" standalone="no"?><!DOCTYPE svg PUBLIC "-//W3C//DTD SVG 1.1//EN" "http://www.w3.org/Graphics/SVG/1.1/DTD/svg11.dtd"><svg t="1553863382241" class="icon" style="" viewBox="0 0 1039 1024" version="1.1" xmlns="http://www.w3.org/2000/svg" p-id="10893" xmlns:xlink="http://www.w3.org/1999/xlink" width="202.9296875" height="200"><defs><style type="text/css"></style></defs><path d="M0.56 320.337c1.102-3.088 2.205-6.172 3.308-9.26 8.381-25.142 30.435-42.121 57.338-43.888 24.483-1.765 48.96 12.57 60.427 35.067 11.69 22.936 8.382 50.059-8.601 70.127-1.981 2.205-3.967 4.41-6.173 7.06 47.415 29.108 94.61 57.777 141.581 86.666 17.862 11.026 35.729 22.054 53.591 32.64 10.144 5.953 18.082 4.192 23.595-5.732 54.031-98.357 108.061-196.938 162.536-296.398-23.6-11.91-38.817-30.211-40.14-57.338-0.883-18.965 5.733-35.286 19.19-48.517 26.683-26.025 70.569-23.596 93.94 5.292 26.912 33.081 17.205 71.674-25.576 100.783 13.897 25.581 28.007 51.166 42.118 76.747 39.255 71.454 78.288 142.684 117.546 214.137 9.045 16.54 14.774 18.082 30.874 8.382 60.647-37.051 121.292-74.322 181.94-111.369 2.869-1.766 5.513-3.532 8.82-5.514-12.567-12.572-20.511-26.687-21.389-44.106-1.767-32.64 20.726-61.31 52.265-66.604 32.864-5.733 63.29 13.013 73 44.77 0.664 2.425 1.767 5.07 2.644 7.499v22.054c-10.363 33.08-31.538 52.264-67.925 52.484-1.318 3.751-2.645 7.499-3.748 11.246-35.51 121.733-71.01 243.69-106.52 365.422-4.624 15.885-10.138 20.073-26.24 20.073H205.88c-17.204 0-22.497-3.972-27.128-20.073-28.889-98.793-57.558-197.817-86.447-296.613-7.718-26.683-15.661-53.372-23.599-80.275-27.124 0-47.635-10.807-60.427-34.183-3.084-5.732-5.07-12.128-7.495-18.305C0.56 334.89 0.56 327.617 0.56 320.337z m511.196 535.237h286.47c25.586 0 45.872 18.082 48.742 42.341 2.868 24.482-13.233 46.75-37.93 52.265-3.532 0.887-7.28 1.101-10.813 1.101H225.064c-21.833 0-40.135-13.007-46.531-32.64-6.616-19.624-0.444-41.901 16.978-53.143 9.042-5.737 20.952-9.708 31.54-9.708 95.048-0.656 189.877-0.216 284.705-0.216z" p-id="10894"></path></svg>