<?xml version="1.0" standalone="no"?><!DOCTYPE svg PUBLIC "-//W3C//DTD SVG 1.1//EN" "http://www.w3.org/Graphics/SVG/1.1/DTD/svg11.dtd"><svg t="1554033356829" class="icon" style="" viewBox="0 0 1024 1024" version="1.1" xmlns="http://www.w3.org/2000/svg" p-id="3840" xmlns:xlink="http://www.w3.org/1999/xlink" width="200" height="200"><defs><style type="text/css"></style></defs><path d="M 512 80 a 432 432 0 0 1 426.24 432 A 432 432 0 0 1 512 944 a 432 432 0 0 1 -425.76 -432 A 432 432 0 0 1 512 80 m 0 -48 A 477.12 477.12 0 0 0 38.24 512 A 477.12 477.12 0 0 0 512 992 a 477.12 477.12 0 0 0 474.24 -480 A 477.12 477.12 0 0 0 512 32 Z" fill="#666666" p-id="3841"></path><path d="M 523.04 769.76 h -33.12 V 704 a 196.8 196.8 0 0 1 -106.08 -26.4 v -54.72 a 173.28 173.28 0 0 0 106.08 36.96 V 512 a 240 240 0 0 1 -87.84 -61.44 a 107.04 107.04 0 0 1 -20.16 -65.28 a 108.48 108.48 0 0 1 30.24 -76.32 A 126.24 126.24 0 0 1 489.92 272 V 214.88 h 33.12 v 53.76 a 172.32 172.32 0 0 1 84.96 17.28 v 55.2 a 144 144 0 0 0 -84 -26.88 v 155.52 a 249.12 249.12 0 0 1 87.36 57.6 a 103.68 103.68 0 0 1 -6.24 139.2 a 144 144 0 0 1 -81.12 36.48 Z m -33.12 -453.6 a 60 60 0 0 0 -53.76 62.88 a 67.68 67.68 0 0 0 11.52 40.32 a 130.08 130.08 0 0 0 42.24 33.12 Z m 33.12 339.84 q 57.12 -12.48 57.12 -60.96 q 0 -40.8 -57.12 -71.04 Z" fill="#666666" p-id="3842"></path></svg>