<?xml version="1.0" standalone="no"?><!DOCTYPE svg PUBLIC "-//W3C//DTD SVG 1.1//EN" "http://www.w3.org/Graphics/SVG/1.1/DTD/svg11.dtd"><svg t="1553866005367" class="icon" style="" viewBox="0 0 1105 1024" version="1.1" xmlns="http://www.w3.org/2000/svg" p-id="25199" xmlns:xlink="http://www.w3.org/1999/xlink" width="215.8203125" height="200"><defs><style type="text/css"></style></defs><path d="M0 0h1105.627581v1024H0z" fill="#FFFFFF" p-id="25200"></path><path d="M370.286653 954.556564c-9.499921 0-17.416523-3.16664-23.749804-11.132721-11.13272-12.666562-9.499921-33.249725 4.749961-44.332967l172.581907-144.082142c17.416523-14.200403 37.962577-22.117005 60.228018-22.117005h324.58065a31.765362 31.765362 0 0 0 31.666405-31.666405v-506.662479a31.765362 31.765362 0 0 0-31.666405-31.666405H212.016477a31.765362 31.765362 0 0 0-31.666405 31.666405v506.662479a31.765362 31.765362 0 0 0 31.666405 31.666405h126.66562a31.765362 31.765362 0 0 1 31.666405 31.666405 31.752993 31.752993 0 0 1-31.666405 31.666405H212.016477a95.246609 95.246609 0 0 1-94.999215-94.999215v-506.662479a95.246609 95.246609 0 0 1 94.937366-94.999215h696.660909a95.246609 95.246609 0 0 1 94.999215 94.999215v506.662479a95.246609 95.246609 0 0 1-94.999215 94.999215H582.451566c-7.916601 0-14.249882 3.16664-20.583163 7.916601L389.286496 948.223283a33.930058 33.930058 0 0 1-18.999843 6.333281z m-31.666405-459.162872a31.752993 31.752993 0 0 1-31.666405-31.666405v-31.666405a31.752993 31.752993 0 0 1 31.666405-31.666405 31.765362 31.765362 0 0 1 31.666405 31.666405v31.666405a31.765362 31.765362 0 0 1-31.666405 31.666405z m221.664835 0a31.752993 31.752993 0 0 1-31.666405-31.666405v-31.666405a31.752993 31.752993 0 0 1 31.666405-31.666405 31.765362 31.765362 0 0 1 31.666405 31.666405v31.666405a31.765362 31.765362 0 0 1-31.666405 31.666405z m221.664834 0a31.765362 31.765362 0 0 1-31.666405-31.666405v-31.666405a31.765362 31.765362 0 0 1 31.666405-31.666405 31.752993 31.752993 0 0 1 31.666405 31.666405v31.666405a31.752993 31.752993 0 0 1-31.604556 31.666405z m0 0" fill="" p-id="25201"></path></svg>