<?xml version="1.0" standalone="no"?><!DOCTYPE svg PUBLIC "-//W3C//DTD SVG 1.1//EN" "http://www.w3.org/Graphics/SVG/1.1/DTD/svg11.dtd"><svg t="1553866094184" class="icon" style="" viewBox="0 0 1024 1024" version="1.1" xmlns="http://www.w3.org/2000/svg" p-id="25966" xmlns:xlink="http://www.w3.org/1999/xlink" width="200" height="200"><defs><style type="text/css"></style></defs><path d="M544 480H288c-19.2 0-32 12.8-32 32s12.8 32 32 32h256c19.2 0 32-12.8 32-32s-12.8-32-32-32zM736 320H288c-19.2 0-32 12.8-32 32s12.8 32 32 32h448c19.2 0 32-12.8 32-32s-12.8-32-32-32z" fill="" p-id="25967"></path><path d="M224 928c-6.4 0-9.6 0-16-3.2-9.6-6.4-16-16-16-28.8v-128H128c-54.4 0-96-41.6-96-96V192c0-54.4 41.6-96 96-96h768c54.4 0 96 41.6 96 96v480c0 54.4-41.6 96-96 96H457.6l-214.4 153.6c-6.4 3.2-12.8 6.4-19.2 6.4zM128 160c-19.2 0-32 12.8-32 32v480c0 19.2 12.8 32 32 32h96c19.2 0 32 12.8 32 32v99.2l172.8-124.8c6.4-3.2 12.8-6.4 19.2-6.4h448c19.2 0 32-12.8 32-32V192c0-19.2-12.8-32-32-32H128z" fill="" p-id="25968"></path></svg>