<?xml version="1.0" standalone="no"?><!DOCTYPE svg PUBLIC "-//W3C//DTD SVG 1.1//EN" "http://www.w3.org/Graphics/SVG/1.1/DTD/svg11.dtd"><svg t="1553865663370" class="icon" style="" viewBox="0 0 1024 1024" version="1.1" xmlns="http://www.w3.org/2000/svg" p-id="19836" xmlns:xlink="http://www.w3.org/1999/xlink" width="200" height="200"><defs><style type="text/css"></style></defs><path d="M862.889711 32.559944h-63.891211c-17.713429 0-38.088991 10.853315-38.088991 28.566743 0 17.713429 20.375562 35.324468 38.088991 35.324468h63.891211c38.088991 0 63.891211 25.80222 63.891211 63.891211v735.670433c0 38.088991-25.80222 63.891211-63.891211 63.891211h-688.059194c-38.088991 0-80.273573-25.80222-80.273573-63.891211V160.342366c0-38.088991 25.80222-63.891211 63.891211-63.891211h80.273573c17.713429 0 24.471153-17.713429 24.471153-35.324468 0-17.713429-6.757724-28.566743-24.471153-28.566743h-80.273573C68.754725 32.559944 30.665733 88.259974 30.665733 161.775822v727.581642c0 78.840116 47.611239 134.642536 134.642536 134.642536h690.823718c87.031297 0 134.642536-46.280172 134.642536-134.642536V161.775822c0-73.515848-44.846715-129.215878-127.884812-129.215878zM238.721728 320.889511c0 17.713429 14.948905 32.662334 32.662334 32.662334h480.003199c17.713429 0 32.662334-14.948905 32.662334-32.662334 0-17.713429-14.948905-32.662334-32.662334-32.662334H271.384062c-17.713429 0-32.662334 14.948905-32.662334 32.662334z m511.334466 144.062394H271.384062c-17.713429 0-32.662334 14.948905-32.662334 32.662334 0 17.713429 14.948905 32.662334 32.662334 32.662333h480.003199c17.713429 0 32.662334-14.948905 32.662334-32.662333-1.331067-19.044496-16.279972-32.662334-33.993401-32.662334z m0 191.776022H271.384062c-17.713429 0-32.662334 14.948905-32.662334 32.662334 0 17.713429 14.948905 32.662334 32.662334 32.662334h480.003199c17.713429 0 32.662334-14.948905 32.662334-32.662334-1.331067-19.044496-16.279972-32.662334-33.993401-32.662334zM400.59994 112.731127H623.60484c25.80222 0 47.611239-25.80222 47.611238-55.80242 0-29.89781-21.706629-55.80242-48.942305-55.80242H400.59994c-27.235676 0-48.942306 25.80222-48.942306 55.80242s21.706629 55.80242 48.942306 55.80242z" p-id="19837"></path></svg>