<?xml version="1.0" standalone="no"?><!DOCTYPE svg PUBLIC "-//W3C//DTD SVG 1.1//EN" "http://www.w3.org/Graphics/SVG/1.1/DTD/svg11.dtd"><svg t="1553864487379" class="icon" style="" viewBox="0 0 1024 1024" version="1.1" xmlns="http://www.w3.org/2000/svg" p-id="13617" xmlns:xlink="http://www.w3.org/1999/xlink" width="200" height="200"><defs><style type="text/css"></style></defs><path d="M894.497 311.91c-1.98-17.271-16.589-30.31-33.997-30.31h-170.325v-34.133c0-94.071-76.459-170.667-170.394-170.667s-170.394 76.595-170.394 170.667v34.133h-170.325c-17.408 0-31.949 13.039-33.86 30.31l-68.198 614.4c-1.092 9.694 2.048 19.319 8.533 26.624 6.485 7.168 15.633 11.332 25.327 11.332h817.835c9.694 0 18.91-4.164 25.395-11.332 6.417-7.236 9.557-16.93 8.465-26.624l-68.062-614.4zM417.587 247.466c0-56.457 45.875-102.4 102.195-102.4 56.388 0 102.263 45.943 102.263 102.4v34.133h-204.459v-34.133zM149.025 895.999l60.621-546.133h139.81v102.4c0 18.842 15.292 34.133 34.133 34.133 18.773 0 34.065-15.292 34.065-34.133v-102.4h204.459v102.4c-0.068 18.842 15.155 34.133 33.997 34.133 18.773 0 34.065-15.292 34.065-34.133v-102.4h139.878l60.621 546.133h-741.649z" p-id="13618"></path></svg>