<?xml version="1.0" standalone="no"?><!DOCTYPE svg PUBLIC "-//W3C//DTD SVG 1.1//EN" "http://www.w3.org/Graphics/SVG/1.1/DTD/svg11.dtd"><svg t="1553862699883" class="icon" style="" viewBox="0 0 1024 1024" version="1.1" xmlns="http://www.w3.org/2000/svg" p-id="2756" xmlns:xlink="http://www.w3.org/1999/xlink" width="200" height="200"><defs><style type="text/css"></style></defs><path d="M679.185 228.972c0-17.315-13.735-31.35-30.686-31.35h-429.622c-16.95 0-30.686 14.036-30.686 31.35 0 17.315 13.735 31.35 30.686 31.35h429.622c16.95 0 30.686-14.036 30.686-31.35zM433.357 369.478c0-17.315-13.436-31.35-30-31.35h-185.142c-16.564 0-30 14.036-30 31.35 0 17.315 13.436 31.35 30 31.35h185.142c16.564 0 30-14.036 30-31.35zM951.972 866.922l-105.664-105.664c32.85-42.407 52.415-95.635 52.415-153.428 0-138.493-112.265-250.757-250.757-250.757s-250.757 112.265-250.757 250.757 112.265 250.757 250.757 250.757c58.093 0 111.557-19.757 154.072-52.928l105.6 105.6c6.128 6.128 14.142 9.172 22.157 9.172 8.014 0 16.050-3.064 22.157-9.172 12.257-12.236 12.257-32.078 0.021-44.335zM801.522 716.472c-6.108 8.593-12.964 16.736-20.572 24.321-7.415 7.415-15.322 14.1-23.658 20.1-31.672 22.735-69.558 34.993-109.307 34.993-50.228 0-97.458-19.565-132.985-55.092-35.528-35.529-55.092-82.757-55.092-132.985 0-50.228 19.565-97.458 55.092-132.985 35.528-35.529 82.757-55.092 132.985-55.092s97.458 19.565 132.985 55.092c35.528 35.529 55.092 82.757 55.092 132.985-0.022 39.493-12.107 77.122-34.543 108.665zM218.214 485.879c-16.564 0-30 14.036-30 31.35 0 17.315 13.436 31.35 30 31.35h98.358c16.564 0 30-14.036 30-31.35 0-17.315-13.436-31.35-30-31.35h-98.358zM721.229 62h-564.343c-51.857 0-94.029 42.193-94.029 94.028v670.372c0 51.857 42.193 94.028 94.029 94.028h313.586c17.315 0 31.35-14.036 31.35-31.35s-14.036-31.35-31.35-31.35h-313.586c-17.25 0-31.35-14.1-31.35-31.35v-670.35c0-17.25 14.1-31.35 31.35-31.35h564.343c17.25 0 31.35 14.1 31.35 31.35v141.236c0 17.315 14.036 31.35 31.35 31.35 17.315 0 31.35-14.036 31.35-31.35v-141.236c-0.021-51.836-42.193-94.029-94.050-94.029z" p-id="2757"></path></svg>