<?xml version="1.0" standalone="no"?><!DOCTYPE svg PUBLIC "-//W3C//DTD SVG 1.1//EN" "http://www.w3.org/Graphics/SVG/1.1/DTD/svg11.dtd"><svg t="1553865133106" class="icon" style="" viewBox="0 0 1024 1024" version="1.1" xmlns="http://www.w3.org/2000/svg" p-id="14675" xmlns:xlink="http://www.w3.org/1999/xlink" width="200" height="200"><defs><style type="text/css"></style></defs><path d="M543.791192 755.987394l-7.969616 0.522343-4.044283 0.272808c-6.799515 0.464162-13.222788 0.902465-19.714586 0.902465-6.493091 0-12.917657-0.438303-19.718465-0.902465l-4.041697-0.272808-7.963151-0.522343-139.914343 238.615273a210115.736566 210115.736566 0 0 0-122.989899-137.009132l-2.841859-3.162505-4.164525-0.858505c-75.076525-15.472485-150.142707-30.572606-183.418829-37.244121l151.77697-259.064242-3.134061-6.270707c-25.627152-51.25301-38.622384-105.865051-38.622383-162.319516 0.062061-98.637576 39.068444-191.36 109.834343-261.081212C317.68501 57.819798 411.867152 19.393939 512.062707 19.393939s194.371232 38.419394 265.179798 108.18198c70.75297 69.708283 109.716687 162.385455 109.716687 260.963556 0 56.590222-12.992646 111.198384-38.615919 162.309171l-3.145697 6.273293 151.796363 259.224566c-33.255434 6.706424-108.338424 21.885414-183.43305 37.360485l-4.165818 0.858505-2.841859 3.162505a214299.906586 214299.906586 0 0 0-122.980848 137.000081L543.791192 755.987394z m-309.346263 67.225859c44.452202 43.11402 91.305374 87.647677 91.781172 88.101494l11.817374 11.230384 100.743757-171.875555-16.872727-4.115394c-83.144404-20.279596-157.335273-68.571798-208.907636-135.983839l-11.69196-15.283717-109.628768 187.040323 16.01293 4.595071c-0.001293 0 63.182869 18.126869 126.745858 36.291233z m576.539152-212.774788c-51.664162 67.528404-125.851152 115.820606-208.893414 135.978666l-16.897293 4.101172 100.741171 171.87297 11.817374-11.196768c0.477091-0.453818 47.45697-44.984889 91.795394-88.10796 62.866101-17.842424 126.127838-36.116687 126.769131-36.301575l15.972849-4.615758-109.610667-187.011879-11.694545 15.281132zM512.062707 56.255354c-181.010101 0-328.272162 147.502545-328.272162 328.807434s147.262061 328.807434 328.272162 328.807434S840.333576 566.367677 840.333576 385.062788C840.195232 203.752727 692.931879 56.255354 512.062707 56.255354z m0 536.939313c-114.691879 0-208-93.306828-208-207.997414 0-114.690586 93.308121-207.998707 208-207.998708 114.690586 0 207.997414 93.308121 207.997414 207.998708 0 114.689293-93.306828 207.997414-207.997414 207.997414z m0-378.732606c-94.143354 0-170.735192 76.591838-170.735192 170.735192 0 94.142061 76.591838 170.733899 170.735192 170.733899 94.142061 0 170.733899-76.590545 170.733899-170.733899S606.204768 214.462061 512.062707 214.462061z" p-id="14676"></path></svg>