<?xml version="1.0" standalone="no"?><!DOCTYPE svg PUBLIC "-//W3C//DTD SVG 1.1//EN" "http://www.w3.org/Graphics/SVG/1.1/DTD/svg11.dtd"><svg t="1553865189901" class="icon" style="" viewBox="0 0 1024 1024" version="1.1" xmlns="http://www.w3.org/2000/svg" p-id="16031" xmlns:xlink="http://www.w3.org/1999/xlink" width="200" height="200"><defs><style type="text/css"></style></defs><path d="M968.373931 491.17347h-57.785114v520.066027H101.597219V491.17347H43.812105V260.033014h270.694367L217.051877 204.299271a88.497902 88.497902 0 0 1-32.87973-121.522095l14.966345-25.656591A90.231456 90.231456 0 0 1 321.787396 24.558674l155.528635 88.93129c11.961519 6.847536 21.438277 16.122047 28.776987 26.66783 4.536131-4.102743 9.476759-7.858776 14.966344-11.036956l150.154619-86.677672a86.677671 86.677671 0 0 1 118.401699 31.724028l14.446279 25.020954a86.706564 86.706564 0 0 1-31.724028 118.401699L698.777481 260.033014H968.373931v231.140456zM447.383342 164.860931L291.854707 75.900747a30.106044 30.106044 0 0 0-40.882968 10.863602l-14.966345 25.685483a29.470408 29.470408 0 0 0 10.979172 40.478473l155.499742 88.960183a30.134937 30.134937 0 0 0 40.911861-10.863602l14.937452-25.65659a29.470408 29.470408 0 0 0-10.950279-40.507365zM477.200461 317.818128H101.597219v115.570228h375.603242v-115.570228z m0 173.355342H159.382333v462.280913h317.818128V491.17347z m18.895732-231.978341L495.60502 260.033014h0.982347l-0.491174-0.837885zM534.985575 953.454383h317.818128V491.17347H534.985575v462.280913z m208.459799-785.906445a28.892557 28.892557 0 0 0 10.574676-39.467233l-14.446279-25.020954a28.863665 28.863665 0 0 0-39.467233-10.574676l-150.154619 86.677671a28.892557 28.892557 0 0 0-10.574675 39.467233l14.446278 25.020955a28.892557 28.892557 0 0 0 39.467233 10.574676l150.154619-86.677672zM910.588817 317.818128H534.985575v115.570228h375.603242v-115.570228z" p-id="16032"></path></svg>