<?xml version="1.0" standalone="no"?><!DOCTYPE svg PUBLIC "-//W3C//DTD SVG 1.1//EN" "http://www.w3.org/Graphics/SVG/1.1/DTD/svg11.dtd"><svg t="1553865242807" class="icon" style="" viewBox="0 0 1024 1024" version="1.1" xmlns="http://www.w3.org/2000/svg" p-id="16885" xmlns:xlink="http://www.w3.org/1999/xlink" width="200" height="200"><defs><style type="text/css"></style></defs><path d="M675.84 648.576H348.16c-15.104 0-27.264 12.288-27.264 27.264 0 15.104 12.288 27.264 27.264 27.264h327.68c15.104 0 27.264-12.288 27.264-27.264a27.205 27.205 0 0 0-27.264-27.264z m0-163.84H348.16c-15.104 0-27.264 12.288-27.264 27.264 0 15.104 12.288 27.264 27.264 27.264h327.68c15.104 0 27.264-12.288 27.264-27.264a27.205 27.205 0 0 0-27.264-27.264z" p-id="16886"></path><path d="M788.224 157.056c-0.64 0-1.28-0.128-2.048-0.128H243.968c-0.896 0-1.664 0-2.56 0.128-0.896-0.128-1.664-0.128-2.56-0.128-45.184 0-81.92 36.736-81.92 81.92v546.176c0 45.184 36.736 81.92 81.92 81.92h546.176c45.184 0 81.92-36.736 81.92-81.92V238.848c0.128-44.032-34.944-80.128-78.72-81.792z m24.192 627.968c0 14.976-12.288 27.264-27.264 27.264H238.848c-14.976 0-27.264-12.288-27.264-27.264V238.848c0-15.104 12.288-27.264 27.264-27.264 0.896 0 1.664 0 2.56-0.128 0.896 0.128 1.664 0.128 2.56 0.128h541.056c15.104 0 27.264 12.288 27.264 27.264v546.176z" p-id="16887"></path><path d="M675.84 320.896H348.16c-15.104 0-27.264 12.288-27.264 27.264 0 15.104 12.288 27.264 27.264 27.264h327.68c15.104 0 27.264-12.288 27.264-27.264a27.205 27.205 0 0 0-27.264-27.264z" p-id="16888"></path></svg>