<?xml version="1.0" standalone="no"?><!DOCTYPE svg PUBLIC "-//W3C//DTD SVG 1.1//EN" "http://www.w3.org/Graphics/SVG/1.1/DTD/svg11.dtd"><svg t="1553865083303" class="icon" style="" viewBox="0 0 1024 1024" version="1.1" xmlns="http://www.w3.org/2000/svg" p-id="14553" xmlns:xlink="http://www.w3.org/1999/xlink" width="200" height="200"><defs><style type="text/css"></style></defs><path d="M787.456 71.68H237.568c-71.68 0-129.536 57.856-129.536 129.536V916.48c0 35.84 27.136 55.296 60.928 43.52l343.552-118.784 343.552 118.784c33.28 11.776 60.928-7.68 60.928-43.52V200.704c0-71.68-58.368-129.024-129.536-129.024z m78.848 839.68l-337.408-116.736c-10.752-4.096-22.528-4.096-32.768 0l-337.92 116.736V202.24c0-43.52 35.328-78.848 78.848-78.848h549.888c43.52 0 78.848 35.328 78.848 78.848l0.512 709.12z" p-id="14554"></path><path d="M722.432 363.52l-29.184-4.608-76.8-11.264-34.304-69.12-13.312-26.112c-27.136-54.272-84.992-54.272-112.128 0l-13.312 26.112L409.088 348.16l-76.8 11.264-29.184 4.096C242.688 372.224 225.28 427.008 268.8 469.504l20.992 20.48 55.808 53.76-13.312 75.776-4.608 28.16c-10.752 59.904 36.352 94.208 90.624 66.56l26.112-13.312 68.608-35.84 68.608 35.84 26.112 13.312c54.272 28.16 100.864-5.632 90.624-66.56l-4.608-28.16-13.312-75.776 55.808-53.76 20.992-20.48c43.008-42.496 25.6-97.28-34.816-105.984z m-7.68 60.928l-20.992 20.48-67.584 65.024-11.776 11.264 18.432 107.52 4.608 28.16c0.512 1.536 0.512 2.56 0.512 3.584l-3.072-1.536-25.6-13.824-82.944-43.008-13.824-7.168-96.768 50.176-26.112 13.312-3.072 1.536c0-1.024 0.512-2.56 0.512-3.584l4.608-28.16 15.872-91.648 3.072-15.872-79.36-75.776-20.992-20.48-2.048-2.048c1.024 0 1.536-0.512 2.56-0.512l29.184-4.608L433.152 404.48l15.872-2.56 48.64-97.28 13.312-26.112c0.512-1.024 1.024-2.56 1.536-3.072l1.536 3.072 13.312 26.112 41.472 83.456 7.168 14.336 108.544 15.36 29.184 4.608c1.024 0 2.048 0.512 2.56 0.512-1.024 0-1.536 1.024-1.536 1.536z" p-id="14555"></path></svg>