<?xml version="1.0" standalone="no"?><!DOCTYPE svg PUBLIC "-//W3C//DTD SVG 1.1//EN" "http://www.w3.org/Graphics/SVG/1.1/DTD/svg11.dtd"><svg t="1553864100458" class="icon" style="" viewBox="0 0 1024 1024" version="1.1" xmlns="http://www.w3.org/2000/svg" p-id="12632" xmlns:xlink="http://www.w3.org/1999/xlink" width="200" height="200"><defs><style type="text/css"></style></defs><path d="M469.333333 1021.866667c-32 0-49.066667-12.8-66.133333-25.6-8.533333-6.4-17.066667-12.8-29.866667-19.2-17.066667-10.666667-36.266667-17.066667-55.466666-19.2H204.8c-42.666667-6.4-74.666667-40.533333-78.933333-83.2V448c-4.266667-38.4 19.2-74.666667 57.6-85.333333 21.333333-8.533333 32-8.533333 44.8-8.533334 14.933333 0 34.133333 0 85.333333-12.8 40.533333-10.666667 64-21.333333 70.4-46.933333 4.266667-21.333333 12.8-49.066667 21.333333-74.666667 8.533333-27.733333 19.2-55.466667 21.333334-72.533333C433.066667 106.666667 448 0 554.666667 0c55.466667 0 100.266667 21.333333 132.266666 66.133333 64 83.2 64 221.866667 59.733334 238.933334-2.133333 10.666667-8.533333 38.4-14.933334 57.6h168.533334c32 4.266667 61.866667 23.466667 78.933333 53.333333 23.466667 38.4 23.466667 125.866667 23.466667 136.533333v4.266667l-64 384c-2.133333 6.4-8.533333 29.866667-53.333334 57.6-21.333333 14.933333-46.933333 23.466667-74.666666 25.6l-341.333334-2.133333z m-258.133333-106.666667h110.933333c25.6 2.133333 51.2 10.666667 72.533334 23.466667 14.933333 8.533333 25.6 14.933333 34.133333 21.333333 14.933333 12.8 23.466667 17.066667 40.533333 17.066667h341.333334c19.2 0 36.266667-6.4 51.2-17.066667 25.6-17.066667 34.133333-27.733333 34.133333-29.866667l64-379.733333c0-34.133333-6.4-93.866667-19.2-115.2-10.666667-17.066667-27.733333-27.733333-46.933333-32H676.266667l6.4-25.6 21.333333-85.333333c2.133333-10.666667 2.133333-136.533333-55.466667-206.933334-25.6-29.866667-55.466667-42.666667-93.866666-42.666666-49.066667 0-74.666667 29.866667-85.333334 108.8-2.133333 21.333333-12.8 49.066667-21.333333 78.933333-8.533333 25.6-17.066667 51.2-21.333333 70.4-10.666667 57.6-68.266667 72.533333-100.266667 81.066667-57.6 14.933333-81.066667 14.933333-96 14.933333-10.666667 0-14.933333 0-29.866667 6.4h-2.133333c-17.066667 4.266667-29.866667 23.466667-27.733333 40.533333v428.8c2.133333 21.333333 19.2 38.4 40.533333 42.666667zM42.666667 381.866667c12.8 0 21.333333 8.533333 21.333333 21.333333v490.666667c0 12.8-8.533333 21.333333-21.333333 21.333333s-21.333333-8.533333-21.333334-21.333333v-490.666667c0-12.8 8.533333-21.333333 21.333334-21.333333z" p-id="12633"></path></svg>