<?xml version="1.0" standalone="no"?><!DOCTYPE svg PUBLIC "-//W3C//DTD SVG 1.1//EN" "http://www.w3.org/Graphics/SVG/1.1/DTD/svg11.dtd"><svg t="1553865209312" class="icon" style="" viewBox="0 0 1024 1024" version="1.1" xmlns="http://www.w3.org/2000/svg" p-id="16152" xmlns:xlink="http://www.w3.org/1999/xlink" width="200" height="200"><defs><style type="text/css"></style></defs><path d="M652.8 339.2C556.8 57.6 460.8 57.6 364.8 339.2 76.8 345.6 51.2 441.6 275.2 627.2c-83.2 288-6.4 345.6 230.4 172.8 236.8 166.4 313.6 108.8 230.4-172.8 236.8-185.6 211.2-281.6-83.2-288z m57.6 288c25.6 96 51.2 217.6 19.2 236.8-38.4 19.2-128-38.4-217.6-102.4h-6.4c-89.6 57.6-179.2 121.6-211.2 96-25.6-19.2-12.8-140.8 12.8-230.4 0-6.4 0-12.8-6.4-19.2-70.4-57.6-153.6-140.8-147.2-172.8 6.4-44.8 121.6-57.6 236.8-70.4 32-96 83.2-204.8 121.6-198.4 38.4 0 89.6 115.2 128 211.2 0 0 224 6.4 230.4 57.6 0 32-83.2 121.6-160 192zM896 19.2H128C64 19.2 19.2 70.4 19.2 128v768c0 64 51.2 115.2 115.2 115.2h768c64 0 115.2-51.2 115.2-115.2V128C1004.8 64 960 19.2 896 19.2z m6.4 947.2h-768c-44.8 0-76.8-32-76.8-76.8L51.2 115.2c0-25.6 38.4-57.6 64-57.6l787.2 6.4c25.6 0 64 25.6 64 64v774.4c6.4 32-25.6 64-64 64z" p-id="16153"></path></svg>