<?xml version="1.0" standalone="no"?><!DOCTYPE svg PUBLIC "-//W3C//DTD SVG 1.1//EN" "http://www.w3.org/Graphics/SVG/1.1/DTD/svg11.dtd"><svg t="1554025227240" class="icon" style="" viewBox="0 0 1024 1024" version="1.1" xmlns="http://www.w3.org/2000/svg" p-id="7899" xmlns:xlink="http://www.w3.org/1999/xlink" width="200" height="200"><defs><style type="text/css"></style></defs><path d="M675.311104 744.362667c5.4784-9.250133 15.138133-15.752533 26.6752-15.752534h0.375467c11.537067 0 21.179733 6.5024 26.6752 15.752534H733.866837V768a102.4 102.4 0 0 1-102.4 102.4H392.533504a102.4 102.4 0 0 1-102.4-102.4V563.2a102.4 102.4 0 0 1 102.4-102.4h238.933333a102.4 102.4 0 0 1 102.4 102.4v118.152533h-4.829866c-5.495467 9.250133-15.138133 15.752533-26.6752 15.752534h-160.3072l39.3216 39.082666a32.494933 32.494933 0 0 1 0 46.148267 32.989867 32.989867 0 0 1-46.421334 0l-92.842666-92.296533a32.221867 32.221867 0 0 1-9.352534-24.4224V665.6c0-3.6864 0.836267-7.1168 2.030934-10.359467 0.119467-0.273067 0.187733-0.546133 0.3072-0.836266 1.911467-4.727467 4.846933-8.942933 8.6528-12.270934 0.426667-0.4608 0.5632-1.0752 1.006933-1.518933l89.6512-89.122133a31.8464 31.8464 0 0 1 44.834133 0 31.402667 31.402667 0 0 1 0 44.561066l-38.263466 38.0416h129.501866v-76.151466a34.133333 34.133333 0 0 0-34.133333-34.133334H387.652437a34.133333 34.133333 0 0 0-34.133333 34.133334v215.313066a34.133333 34.133333 0 0 0 34.133333 34.133334h248.695467a34.133333 34.133333 0 0 0 34.133333-34.133334v-28.893866h4.829867zM1024.000171 955.733333a68.266667 68.266667 0 0 1-68.266667 68.266667H68.266837C32.921771 1024 4.181504 997.034667 0.699904 962.6112A33.826133 33.826133 0 0 1 0.000171 955.733333V716.8a34.133333 34.133333 0 1 1 68.266666 0v204.8a34.133333 34.133333 0 0 0 34.133334 34.133333h819.2a34.133333 34.133333 0 0 0 34.133333-34.133333V409.6a34.133333 34.133333 0 0 0-34.133333-34.133333H102.400171a34.133333 34.133333 0 0 0-34.133334 34.133333v153.6a34.133333 34.133333 0 1 1-68.266666 0V341.333333c0-4.369067 0.904533-8.516267 2.389333-12.356266l0.068267-0.2048c1.536-3.874133 3.7888-7.338667 6.536533-10.359467C39.748437 241.92 143.206571 0 221.866837 0h563.2c124.142933 0 211.268267 251.7504 233.3696 322.730667 3.498667 5.358933 5.563733 11.7248 5.563734 18.602666 0 7.3728-0.8192 13.038933-2.304 17.442134 1.365333 5.376 2.304 10.9056 2.304 16.6912v580.266666zM760.610304 68.266667h-511.146667c-58.862933 0-134.673067 163.908267-166.280533 238.933333h860.842667C918.272171 232.174933 851.626837 68.266667 760.610304 68.266667z" p-id="7900"></path></svg>