<?xml version="1.0" standalone="no"?><!DOCTYPE svg PUBLIC "-//W3C//DTD SVG 1.1//EN" "http://www.w3.org/Graphics/SVG/1.1/DTD/svg11.dtd"><svg t="1553862914206" class="icon" style="" viewBox="0 0 1024 1024" version="1.1" xmlns="http://www.w3.org/2000/svg" p-id="8580" xmlns:xlink="http://www.w3.org/1999/xlink" width="200" height="200"><defs><style type="text/css"></style></defs><path d="M839.953775 112.655779l-7.309476-11.013845L201.987852 101.641935l-7.374968 9.445116C33.900599 316.259944 56.154439 441.172885 83.682399 497.391281c27.607778 56.346309 83.549881 92.802616 142.53325 92.802616l5.321192 0c74.41278-2.944052 123.903961-39.916105 149.97371-66.666352 23.548322 26.751271 67.879993 62.527079 137.2622 62.527079 72.327282 0 117.447922-38.947034 140.043546-65.9879 31.586392 25.747407 93.158726 67.895343 157.752884 67.895343 42.343387 0 78.603219-17.336854 108.134813-51.560306C1034.324648 408.795477 847.913051 124.672464 839.953775 112.655779L839.953775 112.655779zM886.858038 504.378415c-19.860327 23.223934-42.86118 34.31862-70.388117 34.31862-62.247716 0-126.892015-56.346309-141.28584-69.738317l0-168.968319c0-0.470721 0.2415-0.842181 0.2415-1.310855 0-13.681604-11.062963-24.744567-24.695448-24.744567-13.684674 0-24.712845 11.062963-24.712845 24.744567l-0.276293 0 0 183.735651c-13.504572 18.405185-47.693232 54.375421-106.969267 54.375421-66.940598 0-101.793384-45.738717-111.223151-60.295248L407.548578 298.679543c0-13.681604-11.092639-24.744567-24.711821-24.744567-13.649881 0-24.712845 11.062963-24.712845 24.744567l0 176.910199c-12.113899 15.752776-53.792137 62.397119-128.576377 65.469084l-3.331885 0 0-0.031722c-32.993438 0-76.142168-20.249183-98.137111-65.339124-22.060435-44.962028-38.07313-146.633638 98.089016-324.782038l579.664076 0C857.261976 232.240365 954.882318 425.451832 886.858038 504.378415L886.858038 504.378415zM842.088392 618.23658c-13.71435 0-24.907273 11.128455-24.936949 24.842805l0 0.029676 0 0.098237 0 0.064468L817.151443 822.536592c0 27.559683-22.351054 49.879014-49.877991 49.879014L553.656237 872.415606l-0.062422 0L256.119727 872.415606c-27.510564 0-49.862641-22.320355-49.862641-49.879014L206.257086 643.143852c-0.031722-13.778818-11.158131-24.907273-24.907273-24.907273-13.747095 0-24.873504 11.128455-24.937972 24.907273l0 184.342472c0 52.433186 42.389436 94.871741 94.709035 94.871741l521.165754 0c52.300156 0 94.710059-42.438555 94.710059-94.871741L866.996688 643.080407C866.899474 629.365035 855.773066 618.23658 842.088392 618.23658L842.088392 618.23658zM842.088392 618.23658" p-id="8581"></path></svg>