<?xml version="1.0" standalone="no"?><!DOCTYPE svg PUBLIC "-//W3C//DTD SVG 1.1//EN" "http://www.w3.org/Graphics/SVG/1.1/DTD/svg11.dtd"><svg t="1554214790446" class="icon" style="" viewBox="0 0 1024 1024" version="1.1" xmlns="http://www.w3.org/2000/svg" p-id="1980" xmlns:xlink="http://www.w3.org/1999/xlink" width="200" height="200"><defs><style type="text/css"></style></defs><path d="M512 512m-512 0a512 512 0 1 0 1024 0 512 512 0 1 0-1024 0Z" fill="#6BC8C9" p-id="1981"></path><path d="M366.020042 820.95224v-59.75817c-66.569101-6.820933-119.476335-32.434434-158.741703-81.931202V607.583068q66.569101 89.612252 158.741703 97.293302V537.6035c-107.524701-20.442795-158.741703-71.689801-153.621003-150.210536 3.410466-78.520735 54.617467-122.896802 153.621003-131.427969v-52.917235h52.917235v56.327701c78.520735 10.2414 124.607036 58.007931 139.969136 139.959136H476.96521c-11.951634-42.665833-32.434434-68.269334-59.738167-76.810502v157.021468q153.621003 38.405251 153.621003 138.258902c1.710234 87.011896-49.496767 136.55867-153.621003 145.089837v58.007931z m0-355.048542V319.133632c-42.665833 8.531166-63.148634 34.134667-63.148634 75.100267 0 35.844901 20.4828 59.738167 63.148634 71.689802z m51.207001 85.341668v151.940773c42.665833-6.830934 63.148634-34.134667 63.148633-81.931202 1.710234-32.434434-20.4828-56.327701-63.148633-70.009571z m276.517805 266.286406v-34.134667c-39.255367-3.410466-70.009572-20.4828-93.872834-47.796535v-42.665833c25.6035 35.844901 56.327701 54.617467 93.872834 58.007931V650.258903c-63.148634-11.951634-93.872834-42.675835-90.462368-88.762136 1.710234-46.086301 32.434434-71.689801 90.462368-78.510734v-32.434434h30.724201v34.144668c46.086301 6.820933 73.400035 34.134667 83.641435 83.641435h-47.796535c-6.830934-25.6035-18.772567-41.005606-34.134667-46.0863v92.172601c61.448401 15.3621 90.462368 42.665833 90.462368 81.931202 1.710234 51.207001-29.003965 80.230969-90.462368 85.341668v34.134666h-32.434434z m0-209.948704v-87.011896c-25.6035 5.1207-37.555134 20.4828-37.555135 44.376067 0 20.4828 11.951634 34.134667 37.555135 42.675834z m30.724201 49.496767v90.462368c25.6035-5.1207 37.555134-20.4828 37.555134-47.796535 0-20.4828-11.951634-34.134667-37.555134-42.675834z m0 0" fill="#FFFFFF" p-id="1982"></path></svg>