<?xml version="1.0" standalone="no"?><!DOCTYPE svg PUBLIC "-//W3C//DTD SVG 1.1//EN" "http://www.w3.org/Graphics/SVG/1.1/DTD/svg11.dtd"><svg t="1554281962022" class="icon" style="" viewBox="0 0 1310 1024" version="1.1" xmlns="http://www.w3.org/2000/svg" p-id="3155" xmlns:xlink="http://www.w3.org/1999/xlink" width="255.859375" height="200"><defs><style type="text/css"></style></defs><path d="M440.915558 618.74176c11.01824-4.17792 24.3712-7.9872 40.26368-18.0224 23.18336-14.5408 41.00096-44.56448-2.048-81.38752C336.713318 313.91744 388.527718 177.39776 410.236518 125.99296a169.5744 169.5744 0 0 0-62.17728-11.22304h-7.3728c-136.31488 0-172.56448 124.1088-175.3088 193.7408-1.8432 164.08576 98.38592 229.33504 98.38592 229.33504s6.26688 8.6016 6.26688 33.66912c0 5.7344-3.72736 22.77376-10.15808 27.97568C203.880038 644.83328 17.143398 692.06016 4.118118 789.7088c-6.92224 28.2624-2.78528 57.5488-1.4336 84.74624 30.55616 23.47008 128.45056 43.4176 128.45056 43.4176s8.15104-24.73984 16.384-65.61792c12.20608-60.37504 93.7984-158.1056 293.39648-233.55392z m865.15712 170.14784c-13.39392-97.56672-205.12768-144.75264-262.47168-190.0544-6.59456-5.12-10.40384-22.20032-10.40384-27.89376 0-24.9856 6.38976-33.62816 6.38976-33.62816s102.8096-65.16736 100.84352-229.08928c-2.78528-69.50912-46.12096-193.45408-179.6096-193.45408h-7.61856c-28.75392 0-52.96128 5.48864-73.60512 14.45888 28.54912 95.72352 62.8736 271.36-81.5104 389.03808-56.68864 84.5824 132.05504 134.144 102.72768 120.95488 170.76224 76.84096 216.71936 135.7824 229.25312 196.68992 10.4448 50.87232 16.384 81.96096 16.384 81.96096s127.91808-19.53792 161.01376-44.35968c1.4336-27.15648 5.65248-56.40192-1.39264-84.62336z m-556.89216-187.26912c-8.06912-6.43072-12.6976-27.648-12.6976-34.73408 0-31.08864 7.7824-41.7792 7.7824-41.7792-0.16384 0.12288 126.23872-68.32128 123.6992-284.672-3.39968-86.4256-56.5248-240.4352-220.3648-240.4352h-9.29792c-171.37664 0-216.96512 154.0096-220.40576 240.4352-2.33472 203.69408 123.6992 284.672 123.6992 284.672s15.31904 17.48992 15.31904 48.5376c0 7.08608-12.12416 21.54496-20.19328 27.97568-70.32832 56.32-323.66592 113.0496-340.09088 234.2912-12.6976 51.44576-87.90016 133.03808 162.16064 165.888 68.85376 9.0112 162.44736 14.37696 288.768 14.37696 579.9936 0 460.06272-112.4352 443.76064-178.3808-16.42496-121.2416-271.7696-179.89632-342.13888-236.17536z" fill="#8a8a8a" p-id="3156"></path></svg>