<?xml version="1.0" standalone="no"?><!DOCTYPE svg PUBLIC "-//W3C//DTD SVG 1.1//EN" "http://www.w3.org/Graphics/SVG/1.1/DTD/svg11.dtd"><svg t="1554282059630" class="icon" style="" viewBox="0 0 1118 1024" version="1.1" xmlns="http://www.w3.org/2000/svg" p-id="3276" xmlns:xlink="http://www.w3.org/1999/xlink" width="218.359375" height="200"><defs><style type="text/css"></style></defs><path d="M656.784026 181.074499C619.192072 75.598442 523.003632 0.317378 410.695885 0.317378 265.79224 0.317378 149.511537 125.638694 149.511537 277.54332 149.511537 372.483712 194.234884 456.031255 262.214372 505.400259 108.366058 569.959725 1.030024 727.560774 1.030024 911.745133L74.376314 911.745133C74.376314 729.459582 204.968489 577.554956 371.33934 556.66807 373.128274 556.66807 417.851622 552.870454 455.419233 556.66807L458.997102 556.66807C480.846671 559.981148 502.019492 565.517579 522.303623 573.057001 505.916786 541.432871 495.171659 505.959897 491.534829 468.194743 466.90534 479.906726 439.551105 486.412181 410.695885 486.412181 301.570918 486.412181 213.913157 393.370597 213.913157 277.543319 213.913157 161.716043 301.570918 68.674458 410.695885 68.674458 499.203398 68.674458 573.589193 129.879769 598.537875 214.805973 616.378196 201.088483 635.922924 189.698966 656.784026 181.074499ZM855.754211 619.485546C923.7337 570.116542 968.457048 486.568998 968.457048 391.628607 968.457048 237.825173 850.387411 112.503857 705.483764 112.503857 560.580119 112.503857 444.299416 237.825173 444.299416 389.729799 444.299416 484.670191 489.022762 568.217735 557.002251 617.586738 403.153937 682.146204 295.817903 839.747253 295.817903 1023.931612L295.817903 1023.931612 369.164193 1023.931612 369.164193 1023.931612C369.164193 841.646061 499.756367 689.741435 666.127219 668.854549 667.916153 668.854549 712.639501 665.056934 750.207112 668.854549L753.784981 668.854549 753.784981 668.854549C916.577965 693.539051 1041.803338 841.646061 1041.803338 1022.032804L1041.803338 1022.032804 1116.938561 1022.032804 1116.938561 1022.032804C1115.149626 839.747253 1007.813593 682.146204 855.754211 619.485546L855.754211 619.485546ZM705.483764 598.59866C596.358797 598.59866 508.701036 505.557077 508.701036 389.729798 508.701036 273.902522 596.358797 180.860938 705.483764 180.860938 814.608732 180.860938 902.266493 273.90252 902.266493 389.729798 902.266493 505.557077 814.608732 598.59866 705.483764 598.59866L705.483764 598.59866Z" p-id="3277"></path></svg>