<?xml version="1.0" standalone="no"?><!DOCTYPE svg PUBLIC "-//W3C//DTD SVG 1.1//EN" "http://www.w3.org/Graphics/SVG/1.1/DTD/svg11.dtd"><svg t="1554039685156" class="icon" style="" viewBox="0 0 1024 1024" version="1.1" xmlns="http://www.w3.org/2000/svg" p-id="4568" xmlns:xlink="http://www.w3.org/1999/xlink" width="200" height="200"><defs><style type="text/css"></style></defs><path d="M963.723964 355.233963a106.911396 106.911396 0 0 1-94.021369-56.109527 113.735527 113.735527 0 0 1 0-111.839935 62.55454 62.55454 0 0 0-21.988869-83.785171L687.725751 8.340605A58.763356 58.763356 0 0 0 606.594408 30.708592C586.501132 65.966606 530.770724 75.823685 492.858881 75.823685a71.274264 71.274264 0 0 1-75.823684-45.115093A58.763356 58.763356 0 0 0 335.903854 8.340605L175.915879 103.49933a62.175422 62.175422 0 0 0-21.988869 83.785171 113.735527 113.735527 0 0 1 0 111.839935 106.911396 106.911396 0 0 1-94.021369 56.109527A61.038066 61.038066 0 0 0 0.00493 417.030266v189.559212a61.038066 61.038066 0 0 0 59.900711 61.417185 106.911396 106.911396 0 0 1 94.021369 56.109526 113.735527 113.735527 0 0 1 0 111.839935 60.658948 60.658948 0 0 0-5.686776 46.631567 58.763356 58.763356 0 0 0 27.675645 37.911842l160.367093 95.158724a55.35129 55.35129 0 0 0 29.571237 8.340606 60.279829 60.279829 0 0 0 51.180988-31.087711c19.714158-35.258013 50.043632-45.115092 113.735527-45.115093a71.653382 71.653382 0 0 1 75.823684 45.115093 58.763356 58.763356 0 0 0 81.510462 22.367987l159.987974-95.158724a62.55454 62.55454 0 0 0 21.988869-83.785172 113.735527 113.735527 0 0 1 0-111.839935 106.532277 106.532277 0 0 1 94.021369-56.109527A61.038066 61.038066 0 0 0 1023.624675 606.589478v-189.559212a61.038066 61.038066 0 0 0-59.900711-61.796303zM947.80099 602.798294a4.549421 4.549421 0 0 1-4.549421 4.928539A167.191225 167.191225 0 0 0 796.15362 682.413163a178.564778 178.564778 0 0 0 11.373553 167.570343 5.307658 5.307658 0 0 1 0 6.445013l-151.647369 90.988422a4.549421 4.549421 0 0 1-6.065895 0 153.542962 153.542962 0 0 0-135.345278-80.752224A153.542962 153.542962 0 0 0 376.469525 947.796059a4.170303 4.170303 0 0 1-6.065895 0l-151.647369-90.988421v-6.445013A178.564778 178.564778 0 0 0 227.475985 682.413163a166.812106 166.812106 0 0 0-146.339712-75.823685 4.92854 4.92854 0 0 1-5.307658-3.791184v-181.976844a4.92854 4.92854 0 0 1 5.307658-3.791184A166.812106 166.812106 0 0 0 227.475985 341.206581a178.564778 178.564778 0 0 0-11.373553-167.570343 5.307658 5.307658 0 0 1 0-6.445013l151.647369-90.988422h1.895593a4.92854 4.92854 0 0 1 4.549421 2.274711A119.422303 119.422303 0 0 0 492.858881 151.64737c56.488645 0 126.246435-23.126224 154.301199-73.548975a4.170303 4.170303 0 0 1 6.065895-2.27471l151.647369 90.988421a4.92854 4.92854 0 0 1 0 6.445014A178.564778 178.564778 0 0 0 796.15362 341.206581a167.191225 167.191225 0 0 0 146.71883 75.823685 4.92854 4.92854 0 0 1 4.549421 4.92854zM511.814802 303.294739a208.515133 208.515133 0 1 0 208.515134 208.515133A208.894252 208.894252 0 0 0 511.814802 303.294739z m0 341.206581a133.070567 133.070567 0 1 1 132.691449-132.691448 133.070567 133.070567 0 0 1-132.691449 132.691448z" fill="#333333" p-id="4569"></path></svg>