<?xml version="1.0" standalone="no"?><!DOCTYPE svg PUBLIC "-//W3C//DTD SVG 1.1//EN" "http://www.w3.org/Graphics/SVG/1.1/DTD/svg11.dtd"><svg t="1554025329450" class="icon" style="" viewBox="0 0 1024 1024" version="1.1" xmlns="http://www.w3.org/2000/svg" p-id="8217" xmlns:xlink="http://www.w3.org/1999/xlink" width="200" height="200"><defs><style type="text/css"></style></defs><path d="M832 136.533333H209.066667c-17.066667 0-34.133333 12.8-34.133334 34.133334v738.133333c0 17.066667 12.8 34.133333 34.133334 34.133333h422.4c17.066667 0 34.133333-12.8 34.133333-34.133333s-12.8-34.133333-34.133333-34.133333H243.2V200.533333h558.933333v708.266667c0 17.066667 12.8 34.133333 34.133334 34.133333s34.133333-12.8 34.133333-34.133333V166.4c-8.533333-17.066667-21.333333-29.866667-38.4-29.866667z" fill="" p-id="8218"></path><path d="M401.066667 742.4c4.266667 4.266667 12.8 8.533333 21.333333 8.533333s17.066667-4.266667 21.333333-8.533333l196.266667-196.266667c8.533333-8.533333 12.8-21.333333 8.533333-34.133333s-17.066667-21.333333-29.866666-21.333333h-110.933334l115.2-115.2c12.8-12.8 12.8-34.133333 0-46.933334s-34.133333-12.8-46.933333 0l-166.4 166.4c-8.533333 8.533333-12.8 21.333333-8.533333 34.133334s12.8 25.6 25.6 25.6h110.933333l-140.8 140.8c-8.533333 12.8-8.533333 34.133333 4.266667 46.933333z" fill="" p-id="8219"></path></svg>