<?xml version="1.0" standalone="no"?><!DOCTYPE svg PUBLIC "-//W3C//DTD SVG 1.1//EN" "http://www.w3.org/Graphics/SVG/1.1/DTD/svg11.dtd"><svg t="1553862634175" class="icon" style="" viewBox="0 0 1024 1024" version="1.1" xmlns="http://www.w3.org/2000/svg" p-id="2000" xmlns:xlink="http://www.w3.org/1999/xlink" width="200" height="200"><defs><style type="text/css"></style></defs><path d="M513 671.7c0 13.5 11.1 24.6 24.6 24.6h352.7c13.5 0 24.6-11.1 24.6-24.6 0-13.5-11.1-24.6-24.6-24.6H537.6c-13.5 0.1-24.6 11.1-24.6 24.6z m377.7 86.5H538c-13.5 0-24.6 11.1-24.6 24.6 0 13.5 11.1 24.6 24.6 24.6h352.7c13.5 0 24.6-11.1 24.6-24.6 0-13.6-11.1-24.6-24.6-24.6z m0 111H538c-13.5 0-24.6 11.1-24.6 24.6s11.1 24.6 24.6 24.6h352.7c13.5 0 24.6-11.1 24.6-24.6s-11.1-24.6-24.6-24.6z m0 0" p-id="2001"></path><path d="M705.1 580.8c6.6-11.9 2.5-27-9.4-33.6-25.8-14.3-53.3-25.4-81.5-33.6 63.5-38.5 105.7-108.5 105.7-188 0-121.2-98.7-220-220-220s-220 98.7-220 220c0 80.7 43.8 151.6 108.5 189.6C226.7 564.8 108.7 716 108.7 893.7c0 13.5 11.1 24.6 24.6 24.6 13.5 0 24.6-11.1 24.6-24.6 0-191.3 155.6-346.5 346.5-346.5 58.6 0 116.7 14.7 167.5 43 11.9 6.6 26.7 2.5 33.2-9.4z m-376-255.2c0-94.2 76.6-170.8 170.8-170.8s170.8 76.6 170.8 170.8c0 94.2-76.6 170.8-170.8 170.8s-170.8-76.6-170.8-170.8z m0 0" p-id="2002"></path></svg>