<?xml version="1.0" standalone="no"?><!DOCTYPE svg PUBLIC "-//W3C//DTD SVG 1.1//EN" "http://www.w3.org/Graphics/SVG/1.1/DTD/svg11.dtd"><svg t="1554032997307" class="icon" style="" viewBox="0 0 1536 1024" version="1.1" xmlns="http://www.w3.org/2000/svg" p-id="2208" xmlns:xlink="http://www.w3.org/1999/xlink" width="300" height="200"><defs><style type="text/css"></style></defs><path d="M768 0C345.6 0 0 384 0 512c0 170.6625 345.6 512 768 512s768-384 768-512S1190.4 0 768 0z m0 938.6625C392.5 938.6625 85.3375 597.3375 85.3375 512S392.5 85.3375 768 85.3375s682.6625 341.325 682.6625 426.6625S1143.4625 938.6625 768 938.6625z" fill="" p-id="2209"></path><path d="M768 789.3375A277.3375 277.3375 0 1 1 1045.3375 512 276.7875 276.7875 0 0 1 768 789.3375z m0-469.3375A192 192 0 1 0 960 512 191.25 191.25 0 0 0 768 320z" fill="" p-id="2210"></path></svg>