<?xml version="1.0" standalone="no"?><!DOCTYPE svg PUBLIC "-//W3C//DTD SVG 1.1//EN" "http://www.w3.org/Graphics/SVG/1.1/DTD/svg11.dtd"><svg t="1553864444838" class="icon" style="" viewBox="0 0 1024 1024" version="1.1" xmlns="http://www.w3.org/2000/svg" p-id="12876" xmlns:xlink="http://www.w3.org/1999/xlink" width="200" height="200"><defs><style type="text/css"></style></defs><path d="M746.2 184.1c-14.1-10.5-31.6-7-42.2 0-10.5 10.5-17.6 28.1-10.5 42.2 7 14.1 10.5 31.6 14.1 49.2C612.6 54.1 454.5 4.9 447.5 1.4c-10.5-3.5-24.6 0-31.6 7-10.5 7-14.1 21.1-10.5 31.6 14.1 94.9-28.1 207.3-126.5 340.9-7-28.1-17.6-56.2-35.1-87.9-10.7-10.5-24.8-17.5-38.8-14-17.6 3.5-28.1 14.1-28.1 31.6-3.5 52.7-28.1 101.9-56.2 154.6-24.6 45.7-49.2 94.9-59.7 147.6-35.1 168.7 38.7 291.7 246 404.1 7 3.5 10.5 3.5 17.6 3.5 10.5 0 21.1-7 28.1-14.1 10.5-17.6 7-38.7-10.5-49.2l-3.5-3.5c-207.3-116-235.4-210.9-210.8-326.8 10.5-45.7 31.6-84.3 52.7-130 14.1-21.1 24.6-42.2 31.6-63.3 0 10.5 3.5 24.6 3.5 35.1 0 14.1 10.5 28.1 24.6 31.6 14.1 3.5 28.1 0 38.7-10.5C402 342.1 468.8 208.6 475.8 89.1c56.2 35.1 151.1 119.5 200.3 298.7 3.5 10.5 10.5 21.1 24.6 24.6 10.5 3.5 24.6 0 31.6-7 28.1-24.6 42.2-59.7 45.7-94.9 59.7 73.8 126.5 193.3 119.5 316.3-7 101.9-63.3 189.8-165.2 267.1 38.7-182.7-35.1-393.6-196.8-502.5-10.5-7-24.6-7-35.1-3.5-10.5 7-17.6 17.6-17.6 31.6-3.5 98.4-52.7 158.1-98.4 217.9-38.7 49.2-77.3 98.4-84.3 165.2 0 17.6 14.1 35.1 31.6 38.7 21.1 3.5 35.1-14.1 38.7-31.6 3.5-45.7 35.1-84.3 66.8-126.5 38.7-49.2 84.3-108.9 105.4-193.3C668.9 609.3 711 820.2 633.7 967.8v3.5c0 3.5 0 3.5-3.5 7v14.1c0 3.5 0 3.5 3.5 7v3.5l3.5 3.5c0 3.5 3.5 3.5 3.5 7 0 0 3.5 3.5 7 3.5l3.5 3.5s3.5 0 3.5 3.5h21.1c3.5 0 7 0 10.5-3.5C865.7 922.1 964.1 792.1 971.1 641c10.5-235.5-186.3-432.3-224.9-456.9z m0 0" p-id="12877"></path></svg>